<svg xmlns="http://www.w3.org/2000/svg" xmlns:xlink="http://www.w3.org/1999/xlink" zoomAndPan="magnify" preserveAspectRatio="xMidYMid meet" version="1.0" viewBox="77.35 99.34 220.21 170.72"><defs><g/><clipPath id="0ea02d28d7"><path d="M 130.429688 99.34375 L 244.429688 99.34375 L 244.429688 213.34375 L 130.429688 213.34375 Z M 130.429688 99.34375 " clip-rule="nonzero"/></clipPath></defs><g clip-path="url(#0ea02d28d7)"><path fill="#0748a7" d="M 204.617188 130.730469 L 204.617188 99.34375 L 170.375 99.34375 L 170.375 130.730469 L 187.496094 147.847656 Z M 161.816406 139.289062 L 130.429688 139.289062 L 130.429688 173.527344 L 161.816406 173.527344 L 178.9375 156.410156 Z M 170.375 182.085938 L 170.375 213.472656 L 204.617188 213.472656 L 204.617188 182.085938 L 187.496094 164.96875 Z M 213.175781 139.289062 L 196.054688 156.410156 L 213.175781 173.527344 L 244.558594 173.527344 L 244.558594 139.289062 Z M 213.175781 139.289062 " fill-opacity="1" fill-rule="nonzero"/></g><g fill="#0748a7" fill-opacity="1"><g transform="translate(75.849409, 252.952865)"><g><path d="M 9.953125 -21.109375 L 1.5 -21.109375 L 1.5 0 L 6.609375 0 L 6.609375 -6.21875 L 9.953125 -6.21875 C 14.859375 -6.21875 17.3125 -9.953125 17.3125 -13.640625 C 17.3125 -17.3125 14.859375 -21.109375 9.953125 -21.109375 Z M 9.953125 -11.03125 L 6.609375 -11.03125 L 6.609375 -16.15625 L 9.953125 -16.15625 C 11.546875 -16.15625 12.328125 -14.796875 12.328125 -13.546875 C 12.328125 -12.328125 11.546875 -11.03125 9.953125 -11.03125 Z M 9.953125 -11.03125 "/></g></g></g><g fill="#0748a7" fill-opacity="1"><g transform="translate(95.191501, 252.952865)"><g><path d="M 1.5 -20.9375 L 1.5 0 L 15.40625 0 L 15.40625 -4.9375 L 6.609375 -4.9375 L 6.609375 -20.9375 Z M 1.5 -20.9375 "/></g></g></g><g fill="#0748a7" fill-opacity="1"><g transform="translate(112.769829, 252.952865)"><g><path d="M 8.609375 -21.171875 L 0.234375 0 L 5.71875 0 L 6.875 -3.078125 L 14.03125 -3.078125 L 15.1875 0 L 20.96875 0 L 12.265625 -21.171875 Z M 10.46875 -12.734375 L 12.078125 -8.1875 L 12.203125 -7.828125 L 8.734375 -7.828125 L 8.90625 -8.3125 Z M 10.46875 -12.734375 "/></g></g></g><g fill="#0748a7" fill-opacity="1"><g transform="translate(134.802426, 252.952865)"><g><path d="M 7.859375 -8.4375 L 7.859375 0 L 12.984375 0 L 12.984375 -8.46875 L 20.484375 -20.390625 L 20.484375 -20.9375 L 14.828125 -20.9375 L 12.921875 -17.859375 L 10.4375 -13.3125 L 8.078125 -17.578125 L 5.984375 -20.9375 L 0.359375 -20.9375 L 0.359375 -20.453125 Z M 7.859375 -8.4375 "/></g></g></g><g fill="#0748a7" fill-opacity="1"><g transform="translate(156.864916, 252.952865)"><g><path d="M 11.875 -14.328125 L 17.015625 -14.328125 C 17.015625 -19.140625 12.984375 -21.234375 9.234375 -21.234375 C 4.78125 -21.234375 1.015625 -18.484375 1.25 -13.875 L 1.25 -13.90625 C 1.640625 -9.09375 5.65625 -8.34375 9.03125 -8.015625 C 9.8125 -7.921875 12.203125 -7.859375 12.203125 -6.375 C 12.203125 -5.171875 10.859375 -4.6875 9.1875 -4.6875 C 8.015625 -4.6875 6.28125 -5.078125 6.28125 -7.140625 L 1.109375 -7.140625 C 1.109375 -1.828125 5.734375 0.265625 9.15625 0.265625 C 13.125 0.265625 17.375 -2.25 17.375 -6.609375 C 17.375 -7.0625 17.3125 -7.59375 17.21875 -8.078125 C 16.328125 -11.84375 12.59375 -12.625 9.625 -13.015625 C 8.9375 -13.0625 6.453125 -13.09375 6.453125 -14.65625 C 6.453125 -15.796875 7.5625 -16.484375 9.15625 -16.484375 C 10.734375 -16.484375 11.875 -15.734375 11.875 -14.328125 Z M 11.875 -14.328125 "/></g></g></g><g fill="#0748a7" fill-opacity="1"><g transform="translate(176.685321, 252.952865)"><g><path d="M 17.375 -21.171875 L 0.984375 -21.171875 L 0.984375 -16.390625 L 6.640625 -16.390625 L 6.640625 0 L 11.75 0 L 11.75 -16.390625 L 17.375 -16.390625 Z M 17.375 -21.171875 "/></g></g></g><g fill="#0748a7" fill-opacity="1"><g transform="translate(196.535624, 252.952865)"><g><path d="M 8.609375 -21.171875 L 0.234375 0 L 5.71875 0 L 6.875 -3.078125 L 14.03125 -3.078125 L 15.1875 0 L 20.96875 0 L 12.265625 -21.171875 Z M 10.46875 -12.734375 L 12.078125 -8.1875 L 12.203125 -7.828125 L 8.734375 -7.828125 L 8.90625 -8.3125 Z M 10.46875 -12.734375 "/></g></g></g><g fill="#0748a7" fill-opacity="1"><g transform="translate(218.568223, 252.952865)"><g><path d="M 17.375 -21.171875 L 0.984375 -21.171875 L 0.984375 -16.390625 L 6.640625 -16.390625 L 6.640625 0 L 11.75 0 L 11.75 -16.390625 L 17.375 -16.390625 Z M 17.375 -21.171875 "/></g></g></g><g fill="#0748a7" fill-opacity="1"><g transform="translate(238.418526, 252.952865)"><g><path d="M 13.34375 0 L 13.34375 -4.578125 L 9.875 -4.578125 L 9.875 -16.390625 L 13.34375 -16.390625 L 13.34375 -21.046875 L 1.28125 -21.046875 L 1.28125 -16.390625 L 4.75 -16.390625 L 4.75 -4.578125 L 1.28125 -4.578125 L 1.28125 0 Z M 13.34375 0 "/></g></g></g><g fill="#0748a7" fill-opacity="1"><g transform="translate(253.993922, 252.952865)"><g><path d="M 1.53125 -10.4375 C 1.53125 -4.28125 6.375 0.296875 12.34375 0.296875 C 18.328125 0.296875 23.203125 -4.359375 23.203125 -10.4375 C 23.203125 -16.59375 18.328125 -21.265625 12.34375 -21.265625 C 6.375 -21.265625 1.53125 -16.59375 1.53125 -10.4375 Z M 6.609375 -10.4375 C 6.609375 -14.421875 9.484375 -16.359375 12.34375 -16.359375 C 15.21875 -16.359375 18.0625 -14.390625 18.0625 -10.4375 C 18.0625 -6.515625 15.15625 -4.546875 12.296875 -4.546875 C 9.421875 -4.546875 6.609375 -6.484375 6.609375 -10.4375 Z M 6.609375 -10.4375 "/></g></g></g><g fill="#0748a7" fill-opacity="1"><g transform="translate(279.823121, 252.952865)"><g><path d="M 12.6875 -20.9375 L 12.6875 -10.46875 L 5.4375 -20.9375 L 1.5 -20.9375 L 1.5 0 L 6.578125 0 L 6.578125 -10.203125 L 13.734375 0 L 17.734375 0 L 17.734375 -20.9375 Z M 12.6875 -20.9375 "/></g></g></g><g fill="#0748a7" fill-opacity="1"><g transform="translate(159.062387, 269.927092)"><g><path d="M 4.953125 -12.390625 L 1.15625 -12.390625 L 1.15625 0 L 4.953125 0 C 8.765625 0 11.203125 -2.765625 11.203125 -6.171875 C 11.203125 -9.59375 8.8125 -12.390625 4.953125 -12.390625 Z M 4.84375 -1.28125 C 3.640625 -1.28125 2.90625 -1.28125 2.421875 -1.28125 L 2.421875 -11.125 L 4.875 -11.125 C 7.953125 -11.125 9.84375 -8.90625 9.84375 -6.171875 C 9.84375 -3.46875 8.015625 -1.28125 4.84375 -1.28125 Z M 4.84375 -1.28125 "/></g></g></g><g fill="#0748a7" fill-opacity="1"><g transform="translate(171.917918, 269.927092)"><g><path d="M 2.34375 -1.28125 L 2.34375 -5.5625 L 8.640625 -5.5625 L 8.640625 -6.828125 L 2.34375 -6.828125 L 2.34375 -11.125 L 9.1875 -11.125 L 9.1875 -12.390625 L 1.0625 -12.390625 L 1.0625 0 L 9.296875 0 L 9.296875 -1.28125 Z M 2.34375 -1.28125 "/></g></g></g><g fill="#0748a7" fill-opacity="1"><g transform="translate(183.038158, 269.927092)"><g><path d="M 9.640625 0 L 11.0625 0 L 6.375 -12.390625 L 5.203125 -12.390625 L 0.53125 0 L 1.953125 0 L 3.296875 -3.59375 L 8.296875 -3.59375 Z M 3.765625 -4.875 L 5.78125 -10.359375 L 7.828125 -4.875 Z M 3.765625 -4.875 "/></g></g></g><g fill="#0748a7" fill-opacity="1"><g transform="translate(195.57496, 269.927092)"><g><path d="M 2.34375 -1.28125 L 2.34375 -12.390625 L 1.0625 -12.390625 L 1.0625 0 L 8.5 0 L 8.5 -1.28125 Z M 2.34375 -1.28125 "/></g></g></g><g fill="#0748a7" fill-opacity="1"><g transform="translate(205.367171, 269.927092)"><g><path d="M 5.46875 -6.875 C 3.140625 -7.28125 2.125 -7.765625 2.125 -9.015625 C 2.125 -10.484375 3.328125 -11.234375 5.25 -11.234375 C 6.625 -11.234375 7.96875 -10.765625 8.28125 -9.4375 L 9.5 -9.859375 C 9.046875 -11.359375 7.4375 -12.515625 5.25 -12.515625 C 2.21875 -12.515625 0.828125 -10.828125 0.84375 -9.015625 C 0.875 -6.734375 2.828125 -6.046875 5.25 -5.609375 C 7.6875 -5.171875 8.734375 -4.796875 8.734375 -3.453125 C 8.734375 -1.71875 6.78125 -1.140625 5.46875 -1.140625 C 3.59375 -1.140625 2.25 -1.828125 1.75 -3.015625 L 0.53125 -2.578125 C 1.046875 -1.1875 2.703125 0.140625 5.5 0.140625 C 7.765625 0.140625 10.015625 -1.0625 10.015625 -3.453125 C 10.015625 -5.890625 7.75 -6.5 5.46875 -6.875 Z M 5.46875 -6.875 "/></g></g></g></svg>